<?xml version="1.0" ?><svg height="32" id="svg17515" version="1.1" viewBox="0 0 32 32.000001" width="32" xmlns="http://www.w3.org/2000/svg" xmlns:cc="http://creativecommons.org/ns#" xmlns:dc="http://purl.org/dc/elements/1.1/" xmlns:inkscape="http://www.inkscape.org/namespaces/inkscape" xmlns:rdf="http://www.w3.org/1999/02/22-rdf-syntax-ns#" xmlns:sodipodi="http://sodipodi.sourceforge.net/DTD/sodipodi-0.dtd" xmlns:svg="http://www.w3.org/2000/svg"><defs id="defs17517"><clipPath clipPathUnits="userSpaceOnUse" id="clipPath32617-9-8-8-9"><circle cx="-64.623535" cy="50.047192" id="path32619-2-3-5-1" r="38.553814" style="fill:#4bb7c0;fill-opacity:1;stroke:none" transform="matrix(9.3443438,0,0,9.3443438,-627.91229,-5859.5225)"/></clipPath><clipPath clipPathUnits="userSpaceOnUse" id="clipPath19550"><circle cx="-64.623535" cy="50.047192" id="circle19552" r="38.553814" style="fill:#4bb7c0;fill-opacity:1;stroke:none" transform="matrix(9.3443438,0,0,9.3443438,-627.91229,-5859.5225)"/></clipPath></defs><g id="layer1" transform="translate(0,-1020.3622)"><g id="g41099" style="display:inline" transform="translate(775.78623,157.76381)"><path d="m -750.52176,877.604 a 4.0495887,4.0495887 0 0 1 -4.04959,4.04958 4.0495887,4.0495887 0 0 1 -4.04959,-4.04958 4.0495887,4.0495887 0 0 1 4.04959,-4.04959 4.0495887,4.0495887 0 0 1 4.04959,4.04959" id="path39066" style="opacity:1;fill:#ffd158;fill-opacity:1;stroke:none;stroke-width:0.08;stroke-linecap:round;stroke-linejoin:round;stroke-miterlimit:4;stroke-dasharray:none;stroke-opacity:1"/><path d="m -754.54478,869.09847 a 0.50003669,0.50002388 0 0 0 -0.49218,0.50779 l 0,1.48631 a 0.50003669,0.50002388 0 1 0 0.99998,0 l 0,-1.48631 a 0.50003669,0.50002388 0 0 0 -0.5078,-0.50779 z" id="path10515-5-6-6-4-6-8-5-27-6" style="color:#000000;font-style:normal;font-variant:normal;font-weight:normal;font-stretch:normal;font-size:medium;line-height:normal;font-family:sans-serif;text-indent:0;text-align:start;text-decoration:none;text-decoration-line:none;text-decoration-style:solid;text-decoration-color:#000000;letter-spacing:normal;word-spacing:normal;text-transform:none;direction:ltr;writing-mode:lr-tb;baseline-shift:baseline;text-anchor:start;white-space:normal;clip-rule:nonzero;display:inline;overflow:visible;visibility:visible;opacity:1;isolation:auto;mix-blend-mode:normal;color-interpolation:sRGB;color-interpolation-filters:linearRGB;solid-color:#000000;solid-opacity:1;fill:#ffd158;fill-opacity:1;fill-rule:evenodd;stroke:none;stroke-width:1;stroke-linecap:round;stroke-linejoin:round;stroke-miterlimit:4;stroke-dasharray:none;stroke-dashoffset:0;stroke-opacity:1;color-rendering:auto;image-rendering:auto;shape-rendering:auto;text-rendering:auto;enable-background:accumulate"/><path d="m -746.03625,877.59113 a 0.50003669,0.50002388 0 0 0 -0.50778,-0.49216 l -1.48636,0 a 0.50003669,0.50002388 0 1 0 0,0.99994 l 1.48636,0 a 0.50003669,0.50002388 0 0 0 0.50778,-0.50778 z" id="path10034-0-8-2-4-4-6-6-5" style="color:#000000;font-style:normal;font-variant:normal;font-weight:normal;font-stretch:normal;font-size:medium;line-height:normal;font-family:sans-serif;text-indent:0;text-align:start;text-decoration:none;text-decoration-line:none;text-decoration-style:solid;text-decoration-color:#000000;letter-spacing:normal;word-spacing:normal;text-transform:none;direction:ltr;writing-mode:lr-tb;baseline-shift:baseline;text-anchor:start;white-space:normal;clip-rule:nonzero;display:inline;overflow:visible;visibility:visible;opacity:1;isolation:auto;mix-blend-mode:normal;color-interpolation:sRGB;color-interpolation-filters:linearRGB;solid-color:#000000;solid-opacity:1;fill:#ffd158;fill-opacity:1;fill-rule:evenodd;stroke:none;stroke-width:1;stroke-linecap:round;stroke-linejoin:round;stroke-miterlimit:4;stroke-dasharray:none;stroke-dashoffset:0;stroke-opacity:1;color-rendering:auto;image-rendering:auto;shape-rendering:auto;text-rendering:auto;enable-background:accumulate"/><path d="m -760.03708,871.60005 a 0.50003669,0.50002388 0 0 0 -0.34765,0.85735 l 0.9902,0.99015 a 0.50003669,0.50002388 0 1 0 0.70702,-0.70697 l -0.99021,-0.99013 a 0.50003669,0.50002388 0 0 0 -0.35936,-0.1504 z" id="path10046-7-7-3-4-3-6-65-2" style="color:#000000;font-style:normal;font-variant:normal;font-weight:normal;font-stretch:normal;font-size:medium;line-height:normal;font-family:sans-serif;text-indent:0;text-align:start;text-decoration:none;text-decoration-line:none;text-decoration-style:solid;text-decoration-color:#000000;letter-spacing:normal;word-spacing:normal;text-transform:none;direction:ltr;writing-mode:lr-tb;baseline-shift:baseline;text-anchor:start;white-space:normal;clip-rule:nonzero;display:inline;overflow:visible;visibility:visible;opacity:1;isolation:auto;mix-blend-mode:normal;color-interpolation:sRGB;color-interpolation-filters:linearRGB;solid-color:#000000;solid-opacity:1;fill:#ffd158;fill-opacity:1;fill-rule:evenodd;stroke:none;stroke-width:1;stroke-linecap:round;stroke-linejoin:round;stroke-miterlimit:4;stroke-dasharray:none;stroke-dashoffset:0;stroke-opacity:1;color-rendering:auto;image-rendering:auto;shape-rendering:auto;text-rendering:auto;enable-background:accumulate"/><path d="m -748.68852,871.74014 a 0.50003668,0.50002387 0 0 0 -0.70763,0.01 l -0.99,0.98995 a 0.50040467,0.50039185 0 1 0 0.70767,0.70767 l 0.99,-0.98996 a 0.50003668,0.50002387 0 0 0 -4e-5,-0.71806 z" id="path10040-6-8-2-8-7-1-14-3" style="color:#000000;font-style:normal;font-variant:normal;font-weight:normal;font-stretch:normal;font-size:medium;line-height:normal;font-family:sans-serif;text-indent:0;text-align:start;text-decoration:none;text-decoration-line:none;text-decoration-style:solid;text-decoration-color:#000000;letter-spacing:normal;word-spacing:normal;text-transform:none;direction:ltr;writing-mode:lr-tb;baseline-shift:baseline;text-anchor:start;white-space:normal;clip-rule:nonzero;display:inline;overflow:visible;visibility:visible;opacity:1;isolation:auto;mix-blend-mode:normal;color-interpolation:sRGB;color-interpolation-filters:linearRGB;solid-color:#000000;solid-opacity:1;fill:#ffd158;fill-opacity:1;fill-rule:evenodd;stroke:none;stroke-width:1;stroke-linecap:round;stroke-linejoin:round;stroke-miterlimit:4;stroke-dasharray:none;stroke-dashoffset:0;stroke-opacity:1;color-rendering:auto;image-rendering:auto;shape-rendering:auto;text-rendering:auto;enable-background:accumulate"/><path d="m -750.03735,881.59363 a 0.50003669,0.50002388 0 0 0 -0.34765,0.85936 l 0.9902,0.99015 a 0.50003669,0.50002388 0 1 0 0.70702,-0.70697 l -0.99021,-0.99015 a 0.50003669,0.50002388 0 0 0 -0.35936,-0.15239 z" id="path10048-6-8-6-6-2-4-4-2" style="color:#000000;font-style:normal;font-variant:normal;font-weight:normal;font-stretch:normal;font-size:medium;line-height:normal;font-family:sans-serif;text-indent:0;text-align:start;text-decoration:none;text-decoration-line:none;text-decoration-style:solid;text-decoration-color:#000000;letter-spacing:normal;word-spacing:normal;text-transform:none;direction:ltr;writing-mode:lr-tb;baseline-shift:baseline;text-anchor:start;white-space:normal;clip-rule:nonzero;display:inline;overflow:visible;visibility:visible;opacity:1;isolation:auto;mix-blend-mode:normal;color-interpolation:sRGB;color-interpolation-filters:linearRGB;solid-color:#000000;solid-opacity:1;fill:#ffd158;fill-opacity:1;fill-rule:evenodd;stroke:none;stroke-width:1;stroke-linecap:round;stroke-linejoin:round;stroke-miterlimit:4;stroke-dasharray:none;stroke-dashoffset:0;stroke-opacity:1;color-rendering:auto;image-rendering:auto;shape-rendering:auto;text-rendering:auto;enable-background:accumulate"/><path d="m -761.03661,875.09906 a 6.4998094,6.4996428 0 0 0 -5.93539,3.86311 4.7498736,4.7497519 0 0 0 -1.8144,-0.36329 4.7498736,4.7497519 0 0 0 -4.74987,4.74975 4.7498736,4.7497519 0 0 0 4.74987,4.74975 l 7.74979,0 a 6.4998094,6.4996428 0 0 0 6.49983,-6.49966 6.4998094,6.4996428 0 0 0 -6.49983,-6.49966 z" id="path9964-28-6-2-2-1-1" style="opacity:1;fill:#e6f3eb;fill-opacity:1;stroke:none;stroke-width:0.99999988;stroke-linecap:round;stroke-linejoin:round;stroke-miterlimit:4;stroke-dasharray:none;stroke-opacity:1"/><path d="m -757.97461,-144.94531 a 4.0495887,4.0495887 0 0 0 -0.19922,0.34961 6.4998094,6.4996428 0 0 1 3.63672,5.83203 6.4998094,6.4996428 0 0 1 -0.002,0.0527 4.0495887,4.0495887 0 0 0 0.43359,-0.0293 6.4998094,6.4996428 0 0 0 0.01,-0.26563 6.4998094,6.4996428 0 0 0 -3.87891,-5.93945 z" id="path41075" style="opacity:1;fill:#ecc355;fill-opacity:1;stroke:none;stroke-width:0.99999988;stroke-linecap:round;stroke-linejoin:round;stroke-miterlimit:4;stroke-dasharray:none;stroke-opacity:1" transform="translate(0,1020.3622)"/></g></g></svg>