<?xml version="1.0" ?><svg id="Layer_1" style="enable-background:new 0 0 64 64;" version="1.1" viewBox="0 0 64 64" xml:space="preserve" xmlns="http://www.w3.org/2000/svg" xmlns:xlink="http://www.w3.org/1999/xlink"><style type="text/css">
	.st0{fill:url(#SVGID_1_);}
	.st1{fill:url(#SVGID_2_);}
	.st2{fill:url(#SVGID_3_);}
	.st3{fill:url(#SVGID_4_);}
	.st4{fill:#FFFFFF;}
	.st5{fill:url(#SVGID_5_);}
	.st6{fill:url(#SVGID_6_);}
	.st7{fill:url(#SVGID_7_);}
	.st8{fill:url(#SVGID_8_);}
	.st9{fill:url(#SVGID_9_);}
	.st10{fill:#FFBF0B;}
	.st11{fill:#1A1A54;}
	.st12{fill:#DC2863;}
	.st13{fill:none;stroke:#1A1A54;stroke-width:3;stroke-linecap:round;stroke-linejoin:round;stroke-miterlimit:10;}
	.st14{fill:#0B85FF;}
	.st15{opacity:0.5;fill:#FFFFFF;}
	.st16{fill:#00AF64;}
	.st17{fill:#00D17C;}
	.st18{fill:none;stroke:#00D17C;stroke-width:3;stroke-linecap:round;stroke-linejoin:round;stroke-miterlimit:10;}
</style><circle class="st10" cx="32" cy="32" r="32"/><g><path class="st11" d="M23.9,41.6c1-1.3,2.3-2.1,3.7-2.7c1.4-0.6,3-0.8,4.5-0.8c1.5,0.1,3,0.4,4.4,1c0.7,0.3,1.3,0.7,1.9,1.1   c0.6,0.4,1.1,0.9,1.6,1.5c0.3,0.4,0.3,1-0.1,1.3c-0.2,0.1-0.4,0.2-0.6,0.2l-0.1,0c-0.7,0-1.4-0.1-2-0.1c-0.6,0-1.2-0.1-1.8-0.2   c-1.2-0.1-2.3-0.1-3.5-0.2c-1.1,0-2.2,0.1-3.4,0.2c-1.1,0.1-2.4,0.3-3.6,0.4l-0.3,0c-0.6,0.1-1.1-0.4-1.2-1   C23.6,42.1,23.7,41.9,23.9,41.6z"/></g><circle class="st4" cx="44.5" cy="23.5" r="7.5"/><circle class="st4" cx="44.5" cy="23.5" r="7.5"/><circle class="st4" cx="44.5" cy="23.5" r="7.5"/><circle class="st11" cx="43.5" cy="21.5" r="4.5"/><circle class="st4" cx="19.5" cy="23.5" r="7.5"/><circle class="st11" cx="18.5" cy="21.5" r="4.5"/></svg>