<?xml version="1.0" ?><svg id="Layer_1" style="enable-background:new 0 0 64 64;" version="1.1" viewBox="0 0 64 64" xml:space="preserve" xmlns="http://www.w3.org/2000/svg" xmlns:xlink="http://www.w3.org/1999/xlink"><style type="text/css">
	.st0{fill:url(#SVGID_1_);}
	.st1{fill:url(#SVGID_2_);}
	.st2{fill:url(#SVGID_3_);}
	.st3{fill:url(#SVGID_4_);}
	.st4{fill:#FFFFFF;}
	.st5{fill:url(#SVGID_5_);}
	.st6{fill:url(#SVGID_6_);}
	.st7{fill:url(#SVGID_7_);}
	.st8{fill:url(#SVGID_8_);}
	.st9{fill:url(#SVGID_9_);}
	.st10{fill:#FFBF0B;}
	.st11{fill:#1A1A54;}
	.st12{fill:#DC2863;}
	.st13{fill:none;stroke:#1A1A54;stroke-width:3;stroke-linecap:round;stroke-linejoin:round;stroke-miterlimit:10;}
	.st14{fill:#0B85FF;}
	.st15{opacity:0.5;fill:#FFFFFF;}
	.st16{fill:#00AF64;}
	.st17{fill:#00D17C;}
	.st18{fill:none;stroke:#00D17C;stroke-width:3;stroke-linecap:round;stroke-linejoin:round;stroke-miterlimit:10;}
</style><circle class="st10" cx="32" cy="32" r="32"/><path class="st11" d="M52,32c0,11-9,20-20,20s-20-9-20-20H52z"/><path class="st12" d="M32,41c-6,0-11.3,2-14.4,5C21.3,49.7,26.4,52,32,52s10.7-2.3,14.4-6.1C43.3,42.9,38,41,32,41z"/><path class="st4" d="M42.4,37H21.6c-1,0-1.8-0.7-2-1.6L19,32h26l-0.7,3.4C44.1,36.3,43.3,37,42.4,37z"/><g><path class="st11" d="M9.3,20.6c1-1.3,2.3-2.1,3.7-2.7c1.4-0.6,3-0.8,4.5-0.8c1.5,0.1,3,0.4,4.4,1c0.7,0.3,1.3,0.7,1.9,1.1   c0.6,0.4,1.1,0.9,1.6,1.5c0.3,0.4,0.3,1-0.1,1.3c-0.2,0.1-0.4,0.2-0.6,0.2l-0.1,0c-0.7,0-1.4-0.1-2-0.1c-0.6,0-1.2-0.1-1.8-0.2   c-1.2-0.1-2.3-0.1-3.5-0.2c-1.1,0-2.2,0.1-3.4,0.2c-1.1,0.1-2.4,0.3-3.6,0.4l-0.3,0c-0.6,0.1-1.1-0.4-1.2-1   C9,21.1,9.1,20.9,9.3,20.6z"/></g><g><path class="st11" d="M53.5,22.4c-1.2-0.1-2.4-0.3-3.6-0.4c-1.1-0.1-2.3-0.2-3.4-0.2c-1.1,0-2.3,0-3.5,0.2c-0.6,0-1.2,0.1-1.8,0.2   c-0.6,0-1.3,0.2-2,0.1l-0.1,0c-0.5,0-0.9-0.4-0.9-0.9c0-0.2,0.1-0.4,0.2-0.6c0.5-0.6,1-1.1,1.6-1.5c0.6-0.4,1.2-0.8,1.9-1.1   c1.4-0.6,2.9-0.9,4.4-1c1.5,0,3.1,0.2,4.5,0.8c1.4,0.6,2.7,1.4,3.7,2.7c0.4,0.5,0.3,1.2-0.2,1.5c-0.2,0.2-0.5,0.2-0.8,0.2   L53.5,22.4z"/></g><path class="st14" d="M60.3,33L60.3,33c-1.9,0-3.5-1.4-3.7-3.3L56,25l4.7,0.6c1.9,0.2,3.3,1.8,3.3,3.7v0C64,31.3,62.3,33,60.3,33z"/><path class="st14" d="M62.5,22L62.5,22c-1,1-2.6,1.1-3.7,0.2L56,20l2.8-2.2c1.1-0.9,2.7-0.8,3.7,0.2l0,0  C63.6,19.1,63.6,20.9,62.5,22z"/><path class="st14" d="M3.7,33L3.7,33c1.9,0,3.5-1.4,3.7-3.3L8,25l-4.7,0.6C1.4,25.8,0,27.4,0,29.3v0C0,31.3,1.7,33,3.7,33z"/><path class="st14" d="M1.5,22L1.5,22c1,1,2.6,1.1,3.7,0.2L8,20l-2.8-2.2c-1.1-0.9-2.7-0.8-3.7,0.2l0,0C0.4,19.1,0.4,20.9,1.5,22z"/></svg>